<svg width="153" height="36" viewBox="0 0 153 36" fill="none" xmlns="http://www.w3.org/2000/svg">
<path fill-rule="evenodd" clip-rule="evenodd" d="M14.0155 0.880546C14.3235 0.672777 14.7255 0.667791 15.0386 0.867857L29.399 10.0438L28.3952 11.6148L14.5506 2.76841L1.86433 11.325V29.6183H0V10.8293C0 10.5195 0.154004 10.2298 0.41092 10.0565L14.0155 0.880546Z" fill="black"/>
<path d="M17.1685 29.8412C16.0485 29.8412 15.0005 29.6172 14.0245 29.1692C13.0485 28.7212 12.1845 28.1052 11.4325 27.3212C10.6965 26.5212 10.1205 25.5932 9.7045 24.5372C9.2885 23.4812 9.0805 22.3372 9.0805 21.1052C9.0805 19.9372 9.2885 18.8412 9.7045 17.8172C10.1205 16.7772 10.7045 15.8652 11.4565 15.0812C12.2085 14.2972 13.0885 13.6812 14.0965 13.2332C15.1045 12.7852 16.2005 12.5612 17.3845 12.5612C18.9685 12.5612 20.3365 12.9052 21.4885 13.5932C22.6405 14.2652 23.5045 15.1612 24.0805 16.2812L21.6085 18.1052C21.1765 17.2732 20.5685 16.6332 19.7845 16.1852C19.0165 15.7212 18.1765 15.4892 17.2645 15.4892C16.3045 15.4892 15.4565 15.7532 14.7205 16.2812C14.0005 16.8092 13.4325 17.5052 13.0165 18.3692C12.6165 19.2332 12.4165 20.1772 12.4165 21.2012C12.4165 22.2732 12.6325 23.2412 13.0645 24.1052C13.4965 24.9692 14.0885 25.6572 14.8405 26.1692C15.6085 26.6652 16.4805 26.9132 17.4565 26.9132C19.1045 26.9132 20.5925 26.1372 21.9205 24.5852V23.3852H18.4885V20.9612H24.6565V29.7212H21.9205V27.8012C20.5445 29.1612 18.9605 29.8412 17.1685 29.8412ZM34.6551 19.9292C33.6791 19.9292 32.8071 20.1212 32.0391 20.5052C31.2711 20.8732 30.7191 21.4092 30.3831 22.1132V29.7212H27.1671V17.1452H30.1191V19.8332C30.5511 18.9692 31.1111 18.2892 31.7991 17.7932C32.5031 17.2972 33.2391 17.0252 34.0071 16.9772C34.3431 16.9772 34.5591 16.9852 34.6551 17.0012V19.9292ZM42.1163 29.9612C40.7563 29.9612 39.5803 29.6652 38.5883 29.0732C37.6123 28.4812 36.8523 27.6972 36.3083 26.7212C35.7643 25.7292 35.4923 24.6572 35.4923 23.5052C35.4923 22.3212 35.7563 21.2332 36.2843 20.2412C36.8283 19.2332 37.5963 18.4332 38.5883 17.8412C39.5803 17.2332 40.7643 16.9292 42.1403 16.9292C43.5163 16.9292 44.6923 17.2332 45.6683 17.8412C46.6443 18.4332 47.3883 19.2252 47.9003 20.2172C48.4283 21.1932 48.6923 22.2492 48.6923 23.3852C48.6923 23.8012 48.6683 24.1612 48.6203 24.4652H38.9003C38.9803 25.4412 39.3403 26.2092 39.9803 26.7692C40.6363 27.3292 41.3883 27.6092 42.2363 27.6092C42.8763 27.6092 43.4763 27.4572 44.0363 27.1532C44.6123 26.8332 45.0043 26.4172 45.2123 25.9052L47.9723 26.6732C47.5083 27.6332 46.7643 28.4252 45.7403 29.0492C44.7163 29.6572 43.5083 29.9612 42.1163 29.9612ZM38.8283 22.4252H45.4043C45.3083 21.4812 44.9483 20.7212 44.3243 20.1452C43.7163 19.5532 42.9723 19.2572 42.0923 19.2572C41.2283 19.2572 40.4843 19.5532 39.8603 20.1452C39.2523 20.7212 38.9083 21.4812 38.8283 22.4252ZM70.1875 29.7212H66.9715V22.6652C66.9715 21.6732 66.7955 20.9452 66.4435 20.4812C66.1075 20.0012 65.6355 19.7612 65.0275 19.7612C64.3875 19.7612 63.7875 20.0092 63.2275 20.5052C62.6675 20.9852 62.2675 21.6172 62.0275 22.4012V29.7212H58.8115V22.6652C58.8115 21.6572 58.6355 20.9212 58.2835 20.4572C57.9475 19.9932 57.4755 19.7612 56.8675 19.7612C56.2435 19.7612 55.6435 20.0012 55.0675 20.4812C54.5075 20.9612 54.1075 21.5932 53.8675 22.3772V29.7212H50.6515V17.1452H53.5555V19.4732C54.0195 18.6572 54.6515 18.0332 55.4515 17.6012C56.2675 17.1532 57.1955 16.9292 58.2355 16.9292C59.2755 16.9292 60.0835 17.1852 60.6595 17.6972C61.2515 18.2092 61.6275 18.8412 61.7875 19.5932C62.2835 18.7292 62.9315 18.0732 63.7315 17.6252C64.5315 17.1612 65.4275 16.9292 66.4195 16.9292C67.2035 16.9292 67.8355 17.0732 68.3155 17.3612C68.8115 17.6332 69.1955 18.0092 69.4675 18.4892C69.7395 18.9532 69.9235 19.4812 70.0195 20.0732C70.1315 20.6652 70.1875 21.2652 70.1875 21.8732V29.7212ZM72.9874 15.3932V12.2012H76.2034V15.3932H72.9874ZM72.9874 29.7212V17.1452H76.2034V29.7212H72.9874ZM85.1823 29.7212V12.6812H88.4943V29.7212H85.1823ZM103.425 29.7212H100.209V22.6652C100.209 21.6572 100.033 20.9212 99.6814 20.4572C99.3294 19.9932 98.8414 19.7612 98.2174 19.7612C97.7854 19.7612 97.3454 19.8732 96.8974 20.0972C96.4654 20.3212 96.0734 20.6332 95.7214 21.0332C95.3694 21.4172 95.1134 21.8652 94.9534 22.3772V29.7212H91.7374V17.1452H94.6414V19.4732C95.1054 18.6892 95.7774 18.0732 96.6574 17.6252C97.5374 17.1612 98.5294 16.9292 99.6334 16.9292C100.417 16.9292 101.057 17.0732 101.553 17.3612C102.049 17.6332 102.433 18.0092 102.705 18.4892C102.977 18.9532 103.161 19.4812 103.257 20.0732C103.369 20.6652 103.425 21.2652 103.425 21.8732V29.7212ZM109.395 29.7212L104.763 17.1452H108.099L111.267 26.7932L114.459 17.1452H117.507L112.899 29.7212H109.395ZM124.616 29.9612C123.256 29.9612 122.08 29.6652 121.088 29.0732C120.112 28.4812 119.352 27.6972 118.808 26.7212C118.264 25.7292 117.992 24.6572 117.992 23.5052C117.992 22.3212 118.256 21.2332 118.784 20.2412C119.328 19.2332 120.096 18.4332 121.088 17.8412C122.08 17.2332 123.264 16.9292 124.64 16.9292C126.016 16.9292 127.192 17.2332 128.168 17.8412C129.144 18.4332 129.888 19.2252 130.4 20.2172C130.928 21.1932 131.192 22.2492 131.192 23.3852C131.192 23.8012 131.168 24.1612 131.12 24.4652H121.4C121.48 25.4412 121.84 26.2092 122.48 26.7692C123.136 27.3292 123.888 27.6092 124.736 27.6092C125.376 27.6092 125.976 27.4572 126.536 27.1532C127.112 26.8332 127.504 26.4172 127.712 25.9052L130.472 26.6732C130.008 27.6332 129.264 28.4252 128.24 29.0492C127.216 29.6572 126.008 29.9612 124.616 29.9612ZM121.328 22.4252H127.904C127.808 21.4812 127.448 20.7212 126.824 20.1452C126.216 19.5532 125.472 19.2572 124.592 19.2572C123.728 19.2572 122.984 19.5532 122.36 20.1452C121.752 20.7212 121.408 21.4812 121.328 22.4252ZM137.784 29.9612C136.712 29.9612 135.688 29.7852 134.712 29.4332C133.736 29.0812 132.896 28.5612 132.192 27.8732L133.344 25.7852C134.096 26.3932 134.832 26.8412 135.552 27.1292C136.272 27.4172 136.976 27.5612 137.664 27.5612C138.288 27.5612 138.784 27.4492 139.152 27.2252C139.536 27.0012 139.728 26.6652 139.728 26.2172C139.728 25.7532 139.496 25.4412 139.032 25.2812C138.568 25.1052 137.92 24.8892 137.088 24.6332C136.16 24.3452 135.384 24.0492 134.76 23.7452C134.136 23.4412 133.664 23.0732 133.344 22.6412C133.04 22.2092 132.888 21.6492 132.888 20.9612C132.888 19.7292 133.352 18.7452 134.28 18.0092C135.208 17.2732 136.44 16.9052 137.976 16.9052C138.872 16.9052 139.72 17.0492 140.52 17.3372C141.32 17.6092 142.048 18.0572 142.704 18.6812L141.408 20.7212C140.176 19.7612 138.984 19.2812 137.832 19.2812C137.32 19.2812 136.864 19.3772 136.464 19.5692C136.08 19.7612 135.888 20.0972 135.888 20.5772C135.888 21.0252 136.072 21.3452 136.44 21.5372C136.824 21.7292 137.4 21.9372 138.168 22.1612C139.16 22.4652 140 22.7612 140.688 23.0492C141.392 23.3372 141.92 23.7052 142.272 24.1532C142.64 24.6012 142.824 25.2092 142.824 25.9772C142.824 27.2252 142.368 28.2012 141.456 28.9052C140.544 29.6092 139.32 29.9612 137.784 29.9612ZM152.477 29.0732C152.045 29.2652 151.509 29.4572 150.869 29.6492C150.245 29.8412 149.597 29.9372 148.925 29.9372C148.333 29.9372 147.789 29.8332 147.293 29.6252C146.797 29.4172 146.397 29.0892 146.093 28.6412C145.805 28.1772 145.661 27.5772 145.661 26.8412V19.6172H144.005V17.1452H145.661V13.0652H148.877V17.1452H151.517V19.6172H148.877V25.7612C148.877 26.1932 148.989 26.5052 149.213 26.6972C149.453 26.8892 149.741 26.9852 150.077 26.9852C150.413 26.9852 150.741 26.9292 151.061 26.8172C151.381 26.7052 151.637 26.6092 151.829 26.5292L152.477 29.0732Z" fill="black"/>
</svg>
